<svg width="151" height="48" viewBox="0 0 151 48" fill="none" xmlns="http://www.w3.org/2000/svg">
<path d="M64.6648 8.20222C62.9538 8.20222 61.7138 8.68098 60.9446 9.6385C60.1911 10.5803 59.8144 11.8753 59.8144 13.5235C59.8144 14.3241 59.9086 15.054 60.097 15.7133C60.2853 16.3569 60.5679 16.9141 60.9446 17.385C61.3213 17.856 61.7922 18.2248 62.3573 18.4917C62.9224 18.7428 63.5817 18.8684 64.3352 18.8684C64.7433 18.8684 65.0886 18.8606 65.3712 18.8449C65.6694 18.8292 65.9284 18.7978 66.1482 18.7507V13.0762H69.8213V21.1524C69.3818 21.325 68.6754 21.5055 67.7022 21.6939C66.729 21.898 65.5282 22 64.0997 22C62.8753 22 61.7608 21.8116 60.7562 21.4349C59.7673 21.0582 58.9197 20.5088 58.2133 19.7867C57.5069 19.0646 56.9575 18.1777 56.5651 17.126C56.1884 16.0743 56 14.8735 56 13.5235C56 12.1579 56.2119 10.9492 56.6357 9.89751C57.0596 8.8458 57.6404 7.95891 58.3781 7.23684C59.1159 6.49908 59.9792 5.94183 60.9681 5.5651C61.9728 5.18837 63.0402 5 64.1704 5C64.9395 5 65.6302 5.05494 66.2424 5.16482C66.8703 5.259 67.404 5.37673 67.8435 5.51801C68.2987 5.64358 68.6676 5.77701 68.9501 5.91828C69.2484 6.05956 69.4603 6.16944 69.5859 6.24792L68.5263 9.19114C68.024 8.92428 67.4432 8.69668 66.7839 8.50831C66.1404 8.30425 65.434 8.20222 64.6648 8.20222Z" fill="currentColor"/>
<path d="M78.0187 5.18837C80.4675 5.18837 82.3433 5.62789 83.6462 6.50693C84.949 7.37027 85.6004 8.72022 85.6004 10.5568C85.6004 11.7027 85.3336 12.6367 84.7999 13.3587C84.2819 14.0651 83.5284 14.6223 82.5395 15.0305C82.8691 15.4386 83.2145 15.9095 83.5755 16.4432C83.9365 16.9612 84.2897 17.5106 84.6351 18.0914C84.9961 18.6565 85.3414 19.253 85.6711 19.8809C86.0007 20.4931 86.3068 21.0974 86.5894 21.6939H82.4689C82.1706 21.1602 81.8645 20.6187 81.5506 20.0693C81.2523 19.5199 80.9384 18.9861 80.6088 18.4681C80.2948 17.9501 79.9809 17.4635 79.6669 17.0083C79.353 16.5374 79.039 16.1136 78.7251 15.7368H76.9121V21.6939H73.2389V5.61219C74.0395 5.45522 74.8636 5.34534 75.7112 5.28255C76.5746 5.21976 77.3438 5.18837 78.0187 5.18837ZM78.2306 8.31995C77.9638 8.31995 77.7205 8.32779 77.5007 8.34349C77.2967 8.35919 77.1004 8.37489 76.9121 8.39058V12.8172H77.9481C79.3294 12.8172 80.3184 12.6445 80.9148 12.2992C81.5113 11.9538 81.8096 11.3652 81.8096 10.5332C81.8096 9.73269 81.5035 9.16759 80.8913 8.83795C80.2948 8.49261 79.4079 8.31995 78.2306 8.31995Z" fill="currentColor"/>
<path d="M100.605 21.6939C100.432 21.1288 100.236 20.548 100.016 19.9515C99.8121 19.355 99.608 18.7585 99.4039 18.162H93.0466C92.8425 18.7585 92.6306 19.355 92.4109 19.9515C92.2068 20.548 92.0184 21.1288 91.8458 21.6939H88.0314C88.6435 19.9358 89.2243 18.3112 89.7737 16.8199C90.3231 15.3287 90.8568 13.9238 91.3748 12.6053C91.9085 11.2867 92.4266 10.0388 92.9289 8.8615C93.4469 7.66851 93.9806 6.50693 94.53 5.37673H98.0383C98.572 6.50693 99.0978 7.66851 99.6158 8.8615C100.134 10.0388 100.652 11.2867 101.17 12.6053C101.704 13.9238 102.245 15.3287 102.795 16.8199C103.344 18.3112 103.925 19.9358 104.537 21.6939H100.605ZM96.2017 9.07341C96.1232 9.30886 96.0055 9.63066 95.8485 10.0388C95.6916 10.4469 95.511 10.9178 95.307 11.4515C95.1029 11.9852 94.8753 12.5739 94.6241 13.2175C94.3887 13.861 94.1454 14.536 93.8942 15.2424H98.5327C98.2816 14.536 98.0383 13.861 97.8028 13.2175C97.5674 12.5739 97.3398 11.9852 97.12 11.4515C96.9159 10.9178 96.7354 10.4469 96.5784 10.0388C96.4215 9.63066 96.2959 9.30886 96.2017 9.07341Z" fill="currentColor"/>
<path d="M117.598 21.6939C116.546 19.8259 115.408 17.9815 114.184 16.1607C112.959 14.3398 111.656 12.621 110.275 11.0042V21.6939H106.649V5.37673H109.639C110.157 5.89474 110.73 6.53047 111.358 7.28393C111.986 8.0374 112.622 8.8458 113.265 9.70914C113.925 10.5568 114.576 11.4437 115.22 12.3698C115.863 13.2802 116.468 14.1593 117.033 15.0069V5.37673H120.682V21.6939H117.598Z" fill="currentColor"/>
<path d="M128.119 18.7036C128.292 18.7193 128.488 18.735 128.708 18.7507C128.943 18.7507 129.218 18.7507 129.532 18.7507C131.369 18.7507 132.726 18.2876 133.606 17.3615C134.5 16.4354 134.948 15.156 134.948 13.5235C134.948 11.8126 134.524 10.5175 133.676 9.6385C132.829 8.75947 131.486 8.31995 129.65 8.31995C129.399 8.31995 129.14 8.32779 128.873 8.34349C128.606 8.34349 128.355 8.35919 128.119 8.39058V18.7036ZM138.739 13.5235C138.739 14.9363 138.519 16.1685 138.079 17.2202C137.64 18.2719 137.012 19.1431 136.196 19.8338C135.395 20.5245 134.414 21.0425 133.252 21.3878C132.091 21.7331 130.788 21.9058 129.344 21.9058C128.684 21.9058 127.915 21.8744 127.036 21.8116C126.157 21.7645 125.294 21.6547 124.446 21.482V5.58864C125.294 5.43167 126.173 5.32964 127.083 5.28255C128.01 5.21976 128.802 5.18837 129.461 5.18837C130.859 5.18837 132.122 5.34534 133.252 5.65928C134.398 5.97322 135.379 6.46768 136.196 7.14266C137.012 7.81764 137.64 8.68098 138.079 9.73269C138.519 10.7844 138.739 12.048 138.739 13.5235Z" fill="currentColor"/>
<path d="M62.4896 42.6708C61.8469 41.3071 61.2121 39.8884 60.5851 38.4149C59.958 36.9414 59.3624 35.4836 58.7981 34.0415C58.2337 32.5994 57.7086 31.2199 57.2227 29.9032C56.7524 28.5864 56.3449 27.4108 56 26.3762H60.0443C60.3578 27.3167 60.6948 28.3356 61.0553 29.4329C61.4315 30.5145 61.8077 31.5961 62.184 32.6777C62.5758 33.7593 62.9521 34.7939 63.3126 35.7815C63.6731 36.769 64.0101 37.6233 64.3237 38.3444C64.6215 37.6233 64.9507 36.769 65.3112 35.7815C65.6874 34.7939 66.0636 33.7593 66.4398 32.6777C66.8317 31.5961 67.2079 30.5145 67.5685 29.4329C67.9447 28.3356 68.2895 27.3167 68.603 26.3762H72.5062C72.1457 27.4108 71.7303 28.5864 71.26 29.9032C70.7898 31.2199 70.2725 32.5994 69.7082 34.0415C69.1438 35.4836 68.5482 36.9414 67.9212 38.4149C67.2941 39.8884 66.6593 41.3071 66.0166 42.6708H62.4896Z" fill="#EB3751"/>
<path d="M74.6149 42.6708V26.3762H85.619V29.4564H78.2829V32.6542H84.7961V35.6639H78.2829V39.5906H86.1598V42.6708H74.6149Z" fill="#EB3751"/>
<path d="M96.3045 43C93.6553 43 91.6332 42.2633 90.2381 40.7898C88.8586 39.3163 88.1689 37.2236 88.1689 34.5118C88.1689 33.1637 88.3805 31.9645 88.8038 30.9142C89.227 29.8483 89.807 28.9548 90.5437 28.2337C91.2805 27.497 92.1583 26.9405 93.1772 26.5643C94.1961 26.1881 95.3012 26 96.4926 26C97.1823 26 97.8093 26.0549 98.3736 26.1646C98.9379 26.2586 99.4317 26.3762 99.8549 26.5173C100.278 26.6427 100.631 26.7759 100.913 26.917C101.195 27.0581 101.399 27.1678 101.524 27.2462L100.466 30.2089C99.9647 29.9424 99.3768 29.7151 98.7028 29.527C98.0444 29.3389 97.292 29.2448 96.4455 29.2448C95.8812 29.2448 95.3247 29.3389 94.7761 29.527C94.2431 29.7151 93.765 30.0207 93.3418 30.444C92.9342 30.8515 92.6051 31.3845 92.3542 32.0429C92.1034 32.7012 91.978 33.5007 91.978 34.4412C91.978 35.1936 92.0564 35.899 92.2132 36.5574C92.3856 37.2001 92.6521 37.7566 93.0126 38.2268C93.3888 38.6971 93.8748 39.0733 94.4704 39.3555C95.0661 39.6219 95.7872 39.7552 96.6336 39.7552C97.1666 39.7552 97.6447 39.7238 98.0679 39.6611C98.4912 39.5984 98.8674 39.5279 99.1966 39.4495C99.5258 39.3555 99.8158 39.2536 100.067 39.1438C100.317 39.0341 100.545 38.9322 100.748 38.8382L101.76 41.7773C101.242 42.0908 100.513 42.373 99.5728 42.6238C98.6323 42.8746 97.5428 43 96.3045 43Z" fill="#EB3751"/>
<path d="M116.712 26.3762V29.5035H111.798V42.6708H108.13V29.5035H103.215V26.3762H116.712Z" fill="#EB3751"/>
<path d="M121.599 34.5118C121.599 35.3112 121.693 36.0323 121.881 36.675C122.084 37.3177 122.367 37.8741 122.727 38.3444C123.103 38.799 123.558 39.1517 124.091 39.4025C124.624 39.6533 125.235 39.7787 125.925 39.7787C126.599 39.7787 127.202 39.6533 127.735 39.4025C128.284 39.1517 128.739 38.799 129.099 38.3444C129.475 37.8741 129.758 37.3177 129.946 36.675C130.149 36.0323 130.251 35.3112 130.251 34.5118C130.251 33.7123 130.149 32.9912 129.946 32.3485C129.758 31.6902 129.475 31.1337 129.099 30.6791C128.739 30.2089 128.284 29.8483 127.735 29.5975C127.202 29.3467 126.599 29.2213 125.925 29.2213C125.235 29.2213 124.624 29.3545 124.091 29.621C123.558 29.8718 123.103 30.2324 122.727 30.7026C122.367 31.1572 122.084 31.7137 121.881 32.3721C121.693 33.0148 121.599 33.728 121.599 34.5118ZM134.037 34.5118C134.037 35.9069 133.825 37.1374 133.402 38.2033C132.995 39.2536 132.43 40.1392 131.709 40.8603C130.988 41.5657 130.126 42.0987 129.123 42.4592C128.135 42.8197 127.069 43 125.925 43C124.812 43 123.762 42.8197 122.774 42.4592C121.787 42.0987 120.924 41.5657 120.188 40.8603C119.451 40.1392 118.871 39.2536 118.448 38.2033C118.025 37.1374 117.813 35.9069 117.813 34.5118C117.813 33.1166 118.032 31.894 118.471 30.8437C118.91 29.7778 119.498 28.8843 120.235 28.1632C120.987 27.4421 121.849 26.9013 122.821 26.5408C123.809 26.1803 124.843 26 125.925 26C127.038 26 128.088 26.1803 129.076 26.5408C130.063 26.9013 130.925 27.4421 131.662 28.1632C132.399 28.8843 132.979 29.7778 133.402 30.8437C133.825 31.894 134.037 33.1166 134.037 34.5118Z" fill="#EB3751"/>
<path d="M141.868 26.1881C144.313 26.1881 146.186 26.627 147.487 27.5048C148.788 28.367 149.439 29.7151 149.439 31.5491C149.439 32.6934 149.173 33.6261 148.64 34.3472C148.122 35.0526 147.37 35.609 146.382 36.0166C146.711 36.4242 147.056 36.8944 147.417 37.4274C147.777 37.9447 148.13 38.4933 148.475 39.0733C148.836 39.6376 149.18 40.2333 149.51 40.8603C149.839 41.4716 150.144 42.0751 150.427 42.6708H146.312C146.014 42.1379 145.708 41.597 145.395 41.0484C145.097 40.4998 144.783 39.9668 144.454 39.4495C144.141 38.9322 143.827 38.4463 143.514 37.9917C143.2 37.5214 142.887 37.0982 142.573 36.722H140.763V42.6708H137.095V26.6113C137.894 26.4546 138.717 26.3449 139.563 26.2822C140.426 26.2195 141.194 26.1881 141.868 26.1881ZM142.079 29.3154C141.813 29.3154 141.57 29.3232 141.35 29.3389C141.147 29.3545 140.951 29.3702 140.763 29.3859V33.8064H141.797C143.177 33.8064 144.164 33.6339 144.76 33.2891C145.356 32.9442 145.653 32.3564 145.653 31.5256C145.653 30.7261 145.348 30.1618 144.736 29.8326C144.141 29.4878 143.255 29.3154 142.079 29.3154Z" fill="#EB3751"/>
<path fill-rule="evenodd" clip-rule="evenodd" d="M22.2117 6.47018C22.9417 5.85549 24.0042 5.84212 24.7494 6.43826L32.5 12.6388V7H39.5V18.2388L44.7494 22.4383L46.3111 23.6877L43.8123 26.8111L42.2506 25.5617L23.5325 10.5873L5.78825 25.5298L4.25843 26.8181L1.68188 23.7584L3.21171 22.4702L22.2117 6.47018ZM7.49998 27V41.5H19.5V31H27.5V41.5H39.5V27L23.5 13.5L7.49998 27Z" fill="#EB3751"/>
</svg>
